<svg xmlns:xlink="http://www.w3.org/1999/xlink" xmlns="http://www.w3.org/2000/svg" viewBox="0 0 370 69.99578867107236" preserveAspectRatio="xMidYMid meet" class="css-1r4bsbq" id="dfhfddha" width="370"  height="69.99578867107236" ><defs id="SvgjsDefs1800"></defs><g id="SvgjsG1801" featurekey="symbolFeature-0" transform="matrix(0.24730614032458503,0,0,0.24730614032458503,-2.0959193977411497,-2.1082847519272816)" fill="#000000"><g xmlns="http://www.w3.org/2000/svg"><path d="M202.9,120.4L156,82.2c-3.5-2.9-8.6-2.9-12.1,0L97,120.5c-1.9,1.5-1.9,4.5,0,6l14.7,12c2.1,1.7,5.1,1.7,7.3,0l30.9-25.2   l30.9,25.3c2.1,1.7,5.1,1.7,7.3,0l14.7-12C204.8,124.9,204.8,122,202.9,120.4z"></path><path d="M249.9,158.9l40.2-32.7c1.9-1.5,1.9-4.5,0-6L156,10.7c-3.5-2.9-8.6-2.9-12.1,0L9.9,120c-1.9,1.5-1.9,4.5,0,6l40.2,32.8   L9.9,191.6c-1.9,1.5-1.9,4.5,0,6L124,290.7c2.5,2,6.2,0.3,6.2-3V193c0-2.9-1.3-5.7-3.6-7.5L94,158.9L72,141l-19-15.7   c-1.4-1.1-1.4-3.3,0-4.5l93.4-76.2c2.1-1.7,5.1-1.7,7.3,0l93.4,76.2c1.4,1.1,1.4,3.3,0,4.5L228,140.9l-22.1,18l-32.6,26.6   c-2.3,1.8-3.6,4.6-3.6,7.5v94.7c0,3.2,3.8,5,6.2,3L290,197.6c1.9-1.5,1.9-4.5,0-6L249.9,158.9z M73.9,178.3l26.7,21.8   c1.3,1.1,2.2,2.8,2.2,4.5v28.8c0,1.6-1.9,2.6-3.1,1.5L53,196.8c-1.4-1.1-1.4-3.3,0-4.5l17.3-14.1C71.3,177.3,72.8,177.3,73.9,178.3   z M197.3,233.4v-28.8c0-1.7,0.8-3.4,2.2-4.5l26.7-21.8c1-0.9,2.5-0.9,3.6,0l17.3,14.1c1.4,1.1,1.4,3.3,0,4.5L200.4,235   C199.1,235.9,197.3,235.1,197.3,233.4z"></path></g></g><g id="SvgjsG1802" featurekey="nameFeature-0" transform="matrix(1.2687307223775537,0,0,1.2687307223775537,87.10729550172273,3.5664374687528895)" fill="#000000"><path d="M17.88 15.52 l6 0 l0 24.48 l-6 0 l-9.6 -14.32 l0 14.32 l-6 0 l0 -24.48 l6 0 l9.6 14.32 l0 -14.32 z M34.397 27.6 c0.6 0.2 1.28 0.36 2 0.44 c0.72 0.12 1.4 0.16 2.04 0.16 c0.8 0 2.84 -0.16 2.84 -1.32 c0 -1.24 -1.76 -1.28 -2.64 -1.28 c-1.76 0 -3.28 0.4 -4.24 2 z M45.717 33.76 l0 5.6 c-2.24 0.52 -4.48 0.88 -6.8 0.88 c-6.36 0 -11.08 -3.72 -11.08 -10.16 c0 -6.36 4.56 -10.28 10.6 -10.28 c4.12 0 8.88 1.96 8.88 6.64 c0 4.64 -5.04 6.36 -8.92 6.36 c-1.48 0 -2.96 -0.4 -4.32 -0.96 c0.8 2.24 3.2 2.6 5.28 2.6 c1.08 0 2.16 -0.04 3.24 -0.2 c1 -0.08 2.16 -0.2 3.12 -0.48 z M57.074 30 c0 2.96 1.48 4.64 4.48 4.64 c0.84 0 1.6 -0.12 2.2 -0.4 c1.12 -0.44 1.88 -1.28 2.28 -2.44 c0.16 -0.56 0.24 -1.16 0.24 -1.8 s-0.08 -1.24 -0.24 -1.8 c-0.44 -1.24 -1.12 -1.92 -2.28 -2.48 c-0.6 -0.24 -1.36 -0.36 -2.2 -0.36 c-3 0 -4.48 1.68 -4.48 4.64 z M51.074 12 l6 0 l0 10 c1.36 -1.56 3.2 -2.2 5.24 -2.2 c5.84 0 9.96 4.68 9.96 10.28 c0 6.32 -4.68 10.12 -10.64 10.12 c-6.2 0 -10.56 -4.08 -10.56 -10.2 l0 -18 z M89.951 20 l6 0 l0 10 c0 6.12 -4.24 10.2 -10.2 10.2 c-6.12 0 -10.2 -4.28 -10.2 -10.2 l0 -10 l6 0 l0 10 c0 2.68 1.36 4.64 4.2 4.64 c2.92 0 4.2 -1.92 4.2 -4.64 l0 -10 z M100.54799999999999 12 l6 0 l0 28 l-6 0 l0 -28 z M125.58499999999998 30 c-0.16 -2.92 -1.48 -4.64 -4.52 -4.64 c-0.84 0 -1.56 0.12 -2.16 0.36 c-1.84 0.84 -2.52 2.4 -2.52 4.32 c0 0.64 0.08 1.24 0.28 1.76 c0.6 2.08 2.4 2.84 4.4 2.84 c3.04 0 4.52 -1.64 4.52 -4.64 z M133.185 40 l-6 0 c-0.4 -1 -0.76 -2 -1 -3.04 c-1.36 2.24 -3.44 3.24 -6 3.24 c-5.72 0 -9.8 -4.8 -9.8 -10.28 c0 -6.32 4.72 -10.12 10.68 -10.12 c6.36 0 10.36 4.08 10.52 10.2 c0.04 0.52 0.04 1.12 0.04 1.84 c0 2.8 0.44 5.6 1.56 8.16 z M147.30199999999996 20.68 l0 5.56 l-4.92 0 l0 13.76 l-6 0 l0 -19.96 c0 -6.64 4.88 -10.24 11.04 -10.24 c0.2 0 0.48 0 0.76 0.04 s0.6 0.12 0.88 0.16 l0 5.8 c-0.2 -0.04 -0.44 -0.08 -0.72 -0.12 s-0.52 -0.08 -0.72 -0.08 c-1 0 -1.8 0.12 -2.48 0.32 c-1.12 0.4 -2.12 1.16 -2.48 2.36 c-0.2 0.52 -0.28 1.12 -0.28 1.72 l0 0.68 l4.92 0 z M160.65899999999996 34.64 c2.92 0 4.6 -1.72 4.6 -4.64 s-1.68 -4.64 -4.6 -4.64 s-4.6 1.72 -4.6 4.64 s1.68 4.64 4.6 4.64 z M160.65899999999996 40.2 c-6.16 0 -10.6 -4.08 -10.6 -10.2 c0 -6.32 4.6 -10.2 10.6 -10.2 c6.2 0 10.6 4.08 10.6 10.2 c0 6.28 -4.64 10.2 -10.6 10.2 z M180.89599999999996 30 l0 10 l-6 0 l0 -9.96 c0 -6.64 4.88 -10.24 11.04 -10.24 c0.2 0 0.48 0 0.76 0.04 s0.6 0.12 0.88 0.16 l0 5.8 c-0.2 -0.04 -0.44 -0.08 -0.72 -0.12 s-0.52 -0.08 -0.72 -0.08 c-1 0 -1.8 0.12 -2.48 0.32 c-1.12 0.4 -2.12 1.16 -2.48 2.36 c-0.2 0.52 -0.28 1.12 -0.28 1.72 z M222.97299999999996 29.2 l0 10.8 l-6 0 l0 -10.8 c0 -2.28 -1.08 -3.84 -3.48 -3.84 c-2.36 0 -3.52 1.6 -3.52 3.84 l0 10.8 l-6 0 l0 -10.8 c0 -2.28 -1.16 -3.84 -3.56 -3.84 c-2.36 0 -3.44 1.6 -3.44 3.84 l0 10.8 l-6 0 l0 -10.8 c0 -5.8 3.96 -9.4 9.52 -9.4 c2.84 0 5.04 1.32 6.48 3.76 c1.44 -2.44 3.64 -3.76 6.48 -3.76 c5.76 0 9.52 3.8 9.52 9.4 z"></path></g></svg>