<svg xmlns:xlink="http://www.w3.org/1999/xlink" xmlns="http://www.w3.org/2000/svg" class="h-7 fill-foreground" viewBox="0 0 83.333 43.471" fill="none" width="83.333"  height="43.471" ><path d="M60.9.002c-5.308 0-10.45 1.853-14.49 5.222l4.005 4.8c2.912-2.436 6.648-3.775 10.49-3.775 8.924 0 16.181 6.947 16.181 15.494s-7.259 15.493-16.181 15.493c-3.27 0-6.361-.921-8.997-2.702-2.886-1.836-5.107-4.573-6.236-7.716-.312-.885-.518-1.77-.694-2.824-.148-.74-.188-1.471-.188-2.259v-.69h-.016a25.373 25.373 0 0 0-.357-3.415c-1.158-5.782-4.55-10.737-9.541-13.934A22.647 22.647 0 0 0 22.43 0C10.065 0 0 9.748 0 21.735 0 33.725 10.06 43.47 22.43 43.47c5.576 0 10.86-1.957 14.879-5.532L33.16 33.27c-2.872 2.549-6.685 3.952-10.73 3.952-8.925 0-16.184-6.94-16.184-15.487S13.506 6.247 22.43 6.247c3.228 0 6.35.921 9.051 2.69 3.576 2.288 5.985 5.807 6.792 9.822.163.95.268 1.963.268 2.976 0 1.22.084 2.354.299 3.385.214 1.307.512 2.542.95 3.802a21.582 21.582 0 0 0 8.693 10.834c3.606 2.44 7.905 3.715 12.42 3.715 12.364 0 22.43-9.747 22.43-21.734C83.333 9.75 73.263.002 60.9.002z" xmlns="http://www.w3.org/2000/svg" fill="#A77EF6"></path></svg>