<svg xmlns:xlink="http://www.w3.org/1999/xlink" xmlns="http://www.w3.org/2000/svg" class="h-7 fill-foreground" viewBox="0 0 70 69.754" fill="none" width="70"  height="69.754" ><path xmlns="http://www.w3.org/2000/svg" d="M69.92 10.883a9.197 9.197 0 0 0-.168-.981c-.66-2.856-1.755-5.632-4.398-7.496-.262-.183-.54-.36-.834-.526a15.845 15.845 0 0 0-.839-.442C61.678.458 60.019.231 57.545.033 56.673-.036 55.692.008 54.7.12c-3.232.36-6.572 1.411-6.572 1.411s2.092-.349 6.278.349c1.054.177 2.04.463 2.929.793a18.894 18.894 0 0 1 4.044 2.092 3.6 3.6 0 0 1 .648.57c.112.128.218.259.319.39 1.218 1.61 1.583 3.59 1.212 5.275a5.26 5.26 0 0 1-.433 1.24c-.07.144-.414.446-.986.882C55.746 5.125 45.909 0 34.874 0 15.613 0-.003 15.616-.003 34.878A34.731 34.731 0 0 0 6.71 55.455l5.48-3.158a638.008 638.008 0 0 1 4.34-2.839c5.45-3.349 12.733-7.836 20.049-12.393 7.31-4.553 14.681-9.188 20.302-12.823a418.95 418.95 0 0 0 3.51-2.291c.986-.652.27.547.27.547s-.69 1.466-1.06 2.21c-2.946 5.891-6.586 11.357-8.213 13.632-5.422 7.592-11.555 14.406-16.37 19.346-.466.477-1.864 2.06-3.477 3.886-2.346 2.651-5.15 5.82-6.202 6.864a34.938 34.938 0 0 0 9.534 1.318c19.261 0 34.878-15.616 34.878-34.877a34.79 34.79 0 0 0-2.257-12.366c1.722-4.247 2.807-8.4 2.425-11.63zM34.876 6.278c8.89 0 16.833 4.057 22.078 10.42C45.477 24.278 21.048 39.325 9.92 46.15a85.61 85.61 0 0 0-1.049.651 28.484 28.484 0 0 1-2.596-11.923c0-15.796 12.803-28.6 28.6-28.6zm21.624 35.71c1.39-1.945 4.111-5.997 6.746-10.743a28.57 28.57 0 0 1 .23 3.632c0 14.573-10.9 26.603-24.993 28.374 4.834-4.908 11.695-12.409 18.017-21.262z" fill="#fff"></path></svg>